HIERARCHY
ROOT Hips
{
	OFFSET 0.000000 97.167313 0.000000
	CHANNELS 6 Xposition Yposition Zposition Xrotation Yrotation Zrotation
	JOINT Spine
	{
		OFFSET 0.000000 13.784798 0.064400
		CHANNELS 3 Xrotation Yrotation Zrotation
		JOINT Spine1
		{
			OFFSET 0.000000 12.037903 0.404700
			CHANNELS 3 Xrotation Yrotation Zrotation
			JOINT Spine2
			{
				OFFSET 0.000000 17.795601 0.420200
				CHANNELS 3 Xrotation Yrotation Zrotation
				JOINT Neck
				{
					OFFSET 0.000000 39.131302 11.954600
					CHANNELS 3 Xrotation Yrotation Zrotation
					JOINT Head
					{
						OFFSET 0.000000 14.456192 15.627699
						CHANNELS 3 Xrotation Yrotation Zrotation
						JOINT HeadTop_End
						{
							OFFSET 0.000000 15.703506 7.603401
							CHANNELS 3 Xrotation Yrotation Zrotation
							End Site
							{
								OFFSET 0.000000 17.447403 0.000000
							}
						}
					}
				}
				JOINT LeftShoulder
				{
					OFFSET 17.399500 24.608795 1.168800
					CHANNELS 3 Xrotation Yrotation Zrotation
					JOINT LeftArm
					{
						OFFSET 18.980635 5.765305 1.818600
						CHANNELS 3 Xrotation Yrotation Zrotation
						JOINT LeftForeArm
						{
							OFFSET 49.290169 0.000000 0.000000
							CHANNELS 3 Xrotation Yrotation Zrotation
							JOINT LeftHand
							{
								OFFSET 31.562012 0.000000 0.000000
								CHANNELS 3 Xrotation Yrotation Zrotation
								JOINT LeftHandThumb1
								{
									OFFSET 6.133995 -4.388519 7.076070
									CHANNELS 3 Xrotation Yrotation Zrotation
									JOINT LeftHandThumb2
									{
										OFFSET 6.037666 -3.485840 3.485847
										CHANNELS 3 Xrotation Yrotation Zrotation
										JOINT LeftHandThumb3
										{
											OFFSET 6.496506 -3.750763 3.750761
											CHANNELS 3 Xrotation Yrotation Zrotation
											JOINT LeftHandThumb4
											{
												OFFSET 5.616882 -3.242905 3.242910
												CHANNELS 3 Xrotation Yrotation Zrotation
												End Site
												{
													OFFSET -1.254608 7.132141 0.375429
												}
											}
										}
									}
								}
								JOINT LeftHandPinky1
								{
									OFFSET 18.920792 -0.453171 -11.426712
									CHANNELS 3 Xrotation Yrotation Zrotation
									JOINT LeftHandPinky2
									{
										OFFSET 4.919586 0.000000 0.000000
										CHANNELS 3 Xrotation Yrotation Zrotation
										JOINT LeftHandPinky3
										{
											OFFSET 5.233047 0.000000 0.000000
											CHANNELS 3 Xrotation Yrotation Zrotation
											JOINT LeftHandPinky4
											{
												OFFSET 5.571716 0.000000 0.000000
												CHANNELS 3 Xrotation Yrotation Zrotation
												End Site
												{
													OFFSET -3.459808 4.342407 -0.466164
												}
											}
										}
									}
								}
								JOINT LeftHandRing1
								{
									OFFSET 22.726120 -0.094986 -6.500475
									CHANNELS 3 Xrotation Yrotation Zrotation
									JOINT LeftHandRing2
									{
										OFFSET 6.408615 0.000000 0.000000
										CHANNELS 3 Xrotation Yrotation Zrotation
										JOINT LeftHandRing3
										{
											OFFSET 6.150223 0.000000 0.000000
											CHANNELS 3 Xrotation Yrotation Zrotation
											JOINT LeftHandRing4
											{
												OFFSET 6.145386 0.000000 0.000000
												CHANNELS 3 Xrotation Yrotation Zrotation
												End Site
												{
													OFFSET -3.671402 4.923981 -0.202372
												}
											}
										}
									}
								}
								JOINT LeftHandMiddle1
								{
									OFFSET 23.373947 0.000000 0.000001
									CHANNELS 3 Xrotation Yrotation Zrotation
									JOINT LeftHandMiddle2
									{
										OFFSET 6.996567 0.000000 0.000000
										CHANNELS 3 Xrotation Yrotation Zrotation
										JOINT LeftHandMiddle3
										{
											OFFSET 7.015945 0.000000 0.000000
											CHANNELS 3 Xrotation Yrotation Zrotation
											JOINT LeftHandMiddle4
											{
												OFFSET 7.721573 0.000000 0.000000
												CHANNELS 3 Xrotation Yrotation Zrotation
												End Site
												{
													OFFSET -4.651108 6.158463 0.251582
												}
											}
										}
									}
								}
								JOINT LeftHandIndex1
								{
									OFFSET 21.310577 -0.490082 6.209344
									CHANNELS 3 Xrotation Yrotation Zrotation
									JOINT LeftHandIndex2
									{
										OFFSET 7.536453 0.000000 0.000000
										CHANNELS 3 Xrotation Yrotation Zrotation
										JOINT LeftHandIndex3
										{
											OFFSET 7.512344 0.000000 0.000000
											CHANNELS 3 Xrotation Yrotation Zrotation
											JOINT LeftHandIndex4
											{
												OFFSET 10.212402 0.000000 0.000001
												CHANNELS 3 Xrotation Yrotation Zrotation
												End Site
												{
													OFFSET -5.180801 8.690506 1.388433
												}
											}
										}
									}
								}
							}
						}
					}
				}
				JOINT RightShoulder
				{
					OFFSET -17.399500 24.608795 1.168800
					CHANNELS 3 Xrotation Yrotation Zrotation
					JOINT RightArm
					{
						OFFSET -18.980635 5.765305 1.818600
						CHANNELS 3 Xrotation Yrotation Zrotation
						JOINT RightForeArm
						{
							OFFSET -49.290169 0.000000 0.000000
							CHANNELS 3 Xrotation Yrotation Zrotation
							JOINT RightHand
							{
								OFFSET -31.562012 0.000000 0.000000
								CHANNELS 3 Xrotation Yrotation Zrotation
								JOINT RightHandThumb1
								{
									OFFSET -6.133995 -4.388519 7.076070
									CHANNELS 3 Xrotation Yrotation Zrotation
									JOINT RightHandThumb2
									{
										OFFSET -6.037666 -3.485840 3.485847
										CHANNELS 3 Xrotation Yrotation Zrotation
										JOINT RightHandThumb3
										{
											OFFSET -6.496506 -3.750763 3.750761
											CHANNELS 3 Xrotation Yrotation Zrotation
											JOINT RightHandThumb4
											{
												OFFSET -5.616882 -3.242905 3.242910
												CHANNELS 3 Xrotation Yrotation Zrotation
												End Site
												{
													OFFSET 1.254608 7.132141 0.375429
												}
											}
										}
									}
								}
								JOINT RightHandIndex1
								{
									OFFSET -21.310577 -0.490082 6.209344
									CHANNELS 3 Xrotation Yrotation Zrotation
									JOINT RightHandIndex2
									{
										OFFSET -7.536453 0.000000 0.000000
										CHANNELS 3 Xrotation Yrotation Zrotation
										JOINT RightHandIndex3
										{
											OFFSET -7.512344 0.000000 0.000000
											CHANNELS 3 Xrotation Yrotation Zrotation
											JOINT RightHandIndex4
											{
												OFFSET -10.212402 0.000000 0.000001
												CHANNELS 3 Xrotation Yrotation Zrotation
												End Site
												{
													OFFSET 5.180801 8.690506 1.388433
												}
											}
										}
									}
								}
								JOINT RightHandMiddle1
								{
									OFFSET -23.373947 0.000000 0.000001
									CHANNELS 3 Xrotation Yrotation Zrotation
									JOINT RightHandMiddle2
									{
										OFFSET -6.996567 0.000000 0.000000
										CHANNELS 3 Xrotation Yrotation Zrotation
										JOINT RightHandMiddle3
										{
											OFFSET -7.015945 0.000000 0.000000
											CHANNELS 3 Xrotation Yrotation Zrotation
											JOINT RightHandMiddle4
											{
												OFFSET -7.721573 0.000000 0.000000
												CHANNELS 3 Xrotation Yrotation Zrotation
												End Site
												{
													OFFSET 4.651108 6.158463 0.251582
												}
											}
										}
									}
								}
								JOINT RightHandRing1
								{
									OFFSET -22.726120 -0.094986 -6.500475
									CHANNELS 3 Xrotation Yrotation Zrotation
									JOINT RightHandRing2
									{
										OFFSET -6.408615 0.000000 0.000000
										CHANNELS 3 Xrotation Yrotation Zrotation
										JOINT RightHandRing3
										{
											OFFSET -6.150223 0.000000 0.000000
											CHANNELS 3 Xrotation Yrotation Zrotation
											JOINT RightHandRing4
											{
												OFFSET -6.145386 0.000000 0.000000
												CHANNELS 3 Xrotation Yrotation Zrotation
												End Site
												{
													OFFSET 3.671402 4.923981 -0.202372
												}
											}
										}
									}
								}
								JOINT RightHandPinky1
								{
									OFFSET -18.920792 -0.453171 -11.426712
									CHANNELS 3 Xrotation Yrotation Zrotation
									JOINT RightHandPinky2
									{
										OFFSET -4.919586 0.000000 0.000000
										CHANNELS 3 Xrotation Yrotation Zrotation
										JOINT RightHandPinky3
										{
											OFFSET -5.233047 0.000000 0.000000
											CHANNELS 3 Xrotation Yrotation Zrotation
											JOINT RightHandPinky4
											{
												OFFSET -5.571716 0.000000 0.000000
												CHANNELS 3 Xrotation Yrotation Zrotation
												End Site
												{
													OFFSET 3.459808 4.342407 -0.466164
												}
											}
										}
									}
								}
							}
						}
					}
				}
			}
		}
	}
	JOINT LeftUpLeg
	{
		OFFSET 19.899099 -7.885101 -3.429500
		CHANNELS 3 Xrotation Yrotation Zrotation
		JOINT LeftLeg
		{
			OFFSET 1.745560 -36.997807 10.304700
			CHANNELS 3 Xrotation Yrotation Zrotation
			JOINT LeftFoot
			{
				OFFSET -1.745558 -29.803308 -13.615400
				CHANNELS 3 Xrotation Yrotation Zrotation
				JOINT LeftToeBase
				{
					OFFSET 1.181900 -18.539904 15.226099
					CHANNELS 3 Xrotation Yrotation Zrotation
					JOINT LeftToe_End
					{
						OFFSET -0.863701 1.402801 16.534700
						CHANNELS 3 Xrotation Yrotation Zrotation
						End Site
						{
							OFFSET 0.000000 16.616566 0.000000
						}
					}
				}
			}
		}
	}
	JOINT RightUpLeg
	{
		OFFSET -19.899099 -7.885101 -3.429500
		CHANNELS 3 Xrotation Yrotation Zrotation
		JOINT RightLeg
		{
			OFFSET -1.745560 -36.997807 10.304700
			CHANNELS 3 Xrotation Yrotation Zrotation
			JOINT RightFoot
			{
				OFFSET 1.745558 -29.803308 -13.615400
				CHANNELS 3 Xrotation Yrotation Zrotation
				JOINT RightToeBase
				{
					OFFSET -1.181900 -18.539904 15.226099
					CHANNELS 3 Xrotation Yrotation Zrotation
					JOINT RightToe_End
					{
						OFFSET 0.863701 1.402801 16.534700
						CHANNELS 3 Xrotation Yrotation Zrotation
						End Site
						{
							OFFSET 0.000000 16.616566 0.000000
						}
					}
				}
			}
		}
	}
}
MOTION
Frames: 4
Frame Time: 0.033333
-0.561243 76.393143 -3.748821 -6.603111 -48.796097 0.291388 9.578697 1.130842 -2.298479 14.919406 0.686943 -4.897055 14.925710 0.682026 -4.908049 8.797527 2.521708 -0.521194 -1.139310 33.285308 -9.235756 -0.000003 -0.000000 -0.000000 -1.514888 -5.719202 1.782813 -29.404323 6.135946 -48.023699 -0.000028 -109.968914 -0.000046 -11.981701 4.767505 -4.950651 -6.141235 -11.690810 -6.761697 9.914160 42.595498 3.409840 -0.422808 8.108088 27.509113 -0.000003 0.000001 -0.000001 -3.762438 9.063684 -45.253821 5.342522 5.828999 -85.005290 8.716839 5.103346 -119.369181 -0.000000 -0.000001 -0.000006 0.469714 4.966827 -39.799434 8.181044 5.368600 -113.502991 3.200502 5.218121 -63.022996 -0.000003 -0.000001 0.000005 -0.461477 3.841585 -39.722669 6.450759 5.820355 -95.892857 2.182893 4.561561 -51.127746 -0.000002 0.000001 0.000001 0.255310 3.378205 -45.814344 5.654112 5.847772 -88.067448 2.162145 4.544801 -50.866376 -0.000002 0.000003 0.000001 9.796650 25.996040 3.926539 -47.515843 37.464868 49.071405 -0.000043 104.689062 0.000091 -25.561136 17.376718 13.946199 -7.341093 13.749651 7.412313 9.855803 -44.489089 -3.903261 -0.115793 -14.513075 -28.973874 -0.000000 0.000000 -0.000000 -0.124377 -2.384784 45.108878 4.500586 -4.654545 88.071143 1.723224 -3.618370 50.920136 -0.000001 0.000001 0.000001 -0.761620 -2.932909 39.031051 5.133890 -4.632761 95.881649 1.739738 -3.631703 51.181377 0.000003 -0.000000 -0.000006 0.154755 -4.068824 39.122671 6.509738 -4.273585 113.462863 2.549582 -4.153914 63.067317 -0.000003 -0.000001 -0.000002 -4.198878 -8.025505 44.637786 4.252911 -4.639623 85.014839 6.935977 -4.062637 119.322298 0.000000 0.000001 -0.000001 -28.061091 6.332443 21.540212 44.000458 -6.724815 4.714129 -13.095636 -6.538926 -23.245033 -1.483618 0.000008 0.000009 0.000000 0.000002 0.000000 -16.485182 -8.926927 -33.203472 55.562148 4.818128 -0.749552 -29.869322 -15.565827 15.734710 -0.231272 -0.000000 0.000009 0.000000 0.000001 -0.000000 
-0.714289 76.363525 -3.146004 -7.396165 -49.096738 -0.410868 9.368847 1.661856 -2.153091 13.789943 0.838006 -4.524241 13.795760 0.832756 -4.530720 7.855109 3.414018 -0.182067 -1.020903 32.898583 -8.698669 -0.000002 -0.000000 -0.000000 -1.297123 -4.865238 1.398453 -31.293116 6.730393 -48.263671 -0.000020 -111.546586 -0.000033 -10.193335 3.197405 -5.576715 -6.141235 -11.690808 -6.761699 9.914161 42.595505 3.409843 -0.422809 8.108093 27.509111 -0.000001 0.000001 -0.000002 -3.762441 9.063685 -45.253818 5.342525 5.828997 -85.005290 8.716842 5.103344 -119.369181 0.000004 0.000000 -0.000002 0.469714 4.966830 -39.799434 8.181044 5.368598 -113.502991 3.200505 5.218121 -63.022996 -0.000002 -0.000001 0.000003 -0.461475 3.841588 -39.722669 6.450761 5.820355 -95.892864 2.182890 4.561566 -51.127743 -0.000004 -0.000000 0.000006 0.255309 3.378204 -45.814341 5.654107 5.847768 -88.067448 2.162143 4.544808 -50.866376 0.000000 0.000001 0.000003 9.422441 24.944479 3.280192 -47.685389 36.685714 51.956802 -0.000021 104.776577 0.000025 -24.304996 17.765935 13.580595 -7.341092 13.749646 7.412311 9.855792 -44.489089 -3.903259 -0.115794 -14.513073 -28.973871 0.000001 -0.000001 0.000002 -0.124375 -2.384779 45.108881 4.500580 -4.654543 88.071143 1.723222 -3.618372 50.920129 0.000001 0.000003 0.000001 -0.761621 -2.932914 39.031055 5.133885 -4.632761 95.881649 1.739740 -3.631697 51.181381 -0.000000 -0.000001 0.000003 0.154757 -4.068820 39.122671 6.509741 -4.273587 113.462863 2.549586 -4.153915 63.067330 0.000001 -0.000000 0.000000 -4.198878 -8.025506 44.637779 4.252919 -4.639631 85.014832 6.935976 -4.062641 119.322298 0.000001 0.000000 -0.000003 -27.202229 6.929231 21.562195 44.761170 -7.359143 4.663609 -14.154746 -5.950652 -22.616621 -1.494883 0.000008 -0.000002 -0.000000 0.000002 0.000000 -15.704248 -9.309306 -33.575448 55.125142 4.372649 -1.333467 -29.712689 -14.819629 16.881024 -0.204974 0.000030 -0.000006 0.000000 0.000001 -0.000001 
-0.815955 76.098526 -2.552972 -7.966294 -49.126013 -1.084521 9.187933 2.197324 -2.006860 12.498200 0.880052 -4.092792 12.504115 0.873923 -4.095159 6.935826 4.444345 0.296584 -0.513484 32.306511 -8.079312 0.000001 -0.000000 -0.000001 -1.090427 -4.092910 0.769949 -33.612276 6.948494 -48.382803 0.000031 -112.133640 0.000007 -8.297835 0.769417 -6.009266 -6.141232 -11.690809 -6.761710 9.914170 42.595501 3.409838 -0.422808 8.108087 27.509115 -0.000001 -0.000001 -0.000001 -3.762443 9.063682 -45.253825 5.342524 5.828996 -85.005290 8.716843 5.103340 -119.369181 -0.000002 0.000001 -0.000000 0.469709 4.966827 -39.799430 8.181048 5.368600 -113.502991 3.200506 5.218122 -63.022996 -0.000005 -0.000001 0.000003 -0.461478 3.841584 -39.722673 6.450752 5.820353 -95.892857 2.182891 4.561561 -51.127740 -0.000002 0.000001 0.000004 0.255308 3.378202 -45.814348 5.654110 5.847767 -88.067448 2.162141 4.544802 -50.866372 -0.000002 0.000001 -0.000001 8.912576 23.820083 2.693679 -48.151980 35.850973 55.229910 -0.000064 104.895942 0.000099 -22.809289 17.865854 13.141910 -7.341089 13.749659 7.412313 9.855802 -44.489093 -3.903259 -0.115788 -14.513073 -28.973871 -0.000002 -0.000001 0.000002 -0.124374 -2.384775 45.108878 4.500588 -4.654548 88.071143 1.723220 -3.618370 50.920139 -0.000001 0.000000 0.000001 -0.761619 -2.932909 39.031048 5.133892 -4.632761 95.881649 1.739739 -3.631699 51.181377 -0.000001 -0.000001 -0.000009 0.154755 -4.068823 39.122668 6.509744 -4.273587 113.462863 2.549587 -4.153913 63.067317 -0.000001 -0.000002 -0.000007 -4.198875 -8.025505 44.637789 4.252915 -4.639629 85.014839 6.935974 -4.062637 119.322298 0.000001 0.000004 0.000005 -26.938809 7.123625 21.836438 46.048937 -7.746061 4.544634 -15.354576 -5.760737 -22.090466 -1.491203 -0.000009 0.000006 -0.000000 0.000002 0.000000 -14.990483 -9.733465 -33.974806 54.975773 3.921792 -1.729652 -29.803336 -14.149934 18.064423 -0.166625 0.000025 -0.000001 0.000000 -0.000000 -0.000000 
-0.858836 75.693054 -1.988065 -8.257303 -48.958308 -1.533025 9.071147 2.752136 -1.883963 11.151809 0.854579 -3.655886 11.158370 0.845565 -3.654122 5.917996 5.568231 0.812477 0.262271 31.320352 -7.376919 0.000001 0.000000 -0.000000 -0.890476 -3.423144 -0.029383 -36.355478 7.130885 -48.566880 -0.000037 -111.989865 -0.000069 -6.509840 -0.983670 -6.998832 -6.141237 -11.690808 -6.761699 9.914162 42.595498 3.409837 -0.422806 8.108089 27.509109 0.000002 0.000001 -0.000001 -3.762445 9.063684 -45.253818 5.342521 5.828998 -85.005290 8.716847 5.103347 -119.369194 0.000001 0.000000 -0.000006 0.469715 4.966825 -39.799434 8.181047 5.368603 -113.502998 3.200507 5.218122 -63.022996 0.000003 0.000001 0.000003 -0.461474 3.841584 -39.722666 6.450759 5.820354 -95.892857 2.182890 4.561561 -51.127746 0.000000 0.000003 0.000004 0.255304 3.378206 -45.814348 5.654111 5.847768 -88.067448 2.162143 4.544801 -50.866372 0.000000 -0.000002 0.000001 8.366996 22.499219 1.823479 -48.954735 34.836711 59.119877 0.000015 105.069483 -0.000023 -21.104472 17.807430 12.719605 -7.341096 13.749646 7.412314 9.855798 -44.489096 -3.903259 -0.115786 -14.513073 -28.973874 -0.000001 0.000000 0.000002 -0.124378 -2.384784 45.108878 4.500591 -4.654549 88.071150 1.723218 -3.618371 50.920136 -0.000000 0.000002 -0.000001 -0.761623 -2.932913 39.031058 5.133885 -4.632762 95.881656 1.739737 -3.631700 51.181381 -0.000000 0.000000 -0.000008 0.154752 -4.068828 39.122668 6.509739 -4.273583 113.462863 2.549585 -4.153916 63.067317 -0.000001 -0.000000 0.000000 -4.198876 -8.025505 44.637779 4.252920 -4.639628 85.014832 6.935977 -4.062640 119.322298 -0.000000 0.000001 0.000006 -27.080218 6.974789 22.057242 47.565332 -8.004561 4.397123 -16.515088 -5.681342 -21.618490 -1.498412 -0.000000 0.000001 0.000000 0.000000 -0.000000 -14.424475 -10.093709 -34.430926 55.063079 3.463964 -2.052870 -30.040060 -13.655728 19.268739 -0.134408 -0.000025 0.000003 0.000000 -0.000000 -0.000000 
